<?xml version="1.0" encoding="UTF-8" standalone="no"?>
<!-- Created with Inkscape (http://www.inkscape.org/) -->

<svg
   width="192.70473mm"
   height="84.720085mm"
   viewBox="0 0 192.70473 84.720085"
   version="1.1"
   id="svg1"
   xml:space="preserve"
   xmlns="http://www.w3.org/2000/svg"
   xmlns:svg="http://www.w3.org/2000/svg"><defs
     id="defs1" /><g
     id="layer1"
     transform="translate(-3.855843,-54.738073)"><path
       style="display:inline;fill:#000000;stroke-width:2.76726"
       d="m 36.119724,138.37144 c -2.18827,-0.58827 -5.318174,-1.8085 -6.955344,-2.71161 -3.807681,-2.10042 -4.638933,-5.28136 -3.36062,-12.86008 1.048531,-6.21642 2.213784,-7.49322 2.213784,-2.42572 0,5.22267 3.091452,10.8345 7.454547,13.53198 6.474418,4.00282 16.492811,2.4572 21.425463,-3.3055 5.300727,-6.1927 5.05996,-14.69741 -0.584548,-20.64845 C 54.64348,108.19188 48.238304,102.06064 42.079279,96.32716 28.907457,84.065386 27.684771,82.2004 27.686875,74.373976 c 0.0012,-4.529594 0.344564,-6.147793 1.960509,-9.239851 2.880011,-5.510778 7.577002,-9.122465 13.24716,-10.186217 1.510054,-0.283279 6.523204,-0.279011 11.140337,0.0084 l 8.394785,0.524522 -0.04898,7.43255 c -0.04856,7.370568 -0.05729,7.405943 -1.044106,4.24262 -1.895031,-6.074652 -6.321033,-9.144468 -13.184284,-9.144468 -2.585578,0 -5.296765,0.475386 -6.589555,1.155468 -4.487071,2.3604 -7.687814,7.450566 -7.687814,12.226019 0,5.809685 1.609107,8.050528 13.938401,19.410662 15.17885,13.985709 15.855822,14.682959 17.718125,18.248969 2.319089,4.44069 2.268617,13.31706 -0.105855,18.61339 -2.197656,4.902 -7.129522,9.3225 -12.02185,10.77535 -4.593705,1.36419 -12.059221,1.33349 -17.284044,-0.0712 z m 112.157686,0.0346 c -8.84587,-2.382 -16.16079,-8.29688 -19.67823,-15.91195 l -2.10439,-4.55585 -0.36608,-28.712839 c -0.4087,-32.054887 -0.11954,-30.421581 -5.69023,-32.153534 -2.31655,-0.720232 -0.9011,-0.850333 9.3511,-0.859432 9.2041,-0.0084 11.47062,0.162155 9.51824,0.715063 -1.40942,0.399205 -3.30392,1.415345 -4.20998,2.258117 l -1.64741,1.532291 V 86.79472 c 0,29.45145 0.32567,31.99708 4.96799,38.83135 3.03738,4.47154 8.22,8.33682 12.85506,9.5875 5.0923,1.37408 14.87595,0.50712 19.15167,-1.69706 7.20772,-3.71564 11.95172,-10.22217 13.47969,-18.48782 1.17402,-6.35087 1.05465,-52.185098 -0.14221,-54.550245 -0.54525,-1.077655 -2.25072,-2.325279 -4.19918,-3.071921 l -3.28102,-1.257258 10.9826,0.03696 c 9.4439,0.0318 10.60016,0.155804 8.25281,0.88567 -5.56447,1.730068 -5.28005,0.144734 -5.70329,31.787339 -0.36756,27.478935 -0.43112,28.476545 -2.07554,32.582195 -3.3669,8.40596 -11.83202,15.30741 -21.1939,17.27889 -5.20903,1.09693 -13.56067,0.95327 -18.26781,-0.31428 z M 3.855843,137.73514 c 0,-0.18571 1.3002447,-0.68799 2.8894337,-1.11591 1.5891891,-0.42794 3.5660553,-1.63821 4.3930363,-2.68956 1.469068,-1.86764 1.503603,-2.71551 1.503603,-36.91627 V 62.008682 l -1.64739,-1.868486 C 10.088464,59.112559 8.0292279,57.799476 6.4184489,57.222287 3.6851054,56.242848 4.3688251,56.1745 16.668865,56.198008 c 11.133206,0.02195 12.753297,0.157455 10.436134,0.877574 -1.50864,0.468842 -3.650243,1.759683 -4.759124,2.868585 l -2.016146,2.016157 v 35.079556 35.07958 l 2.150461,2.24463 c 1.182749,1.23452 2.83014,2.2496 3.660862,2.25577 0.830721,0.006 2.004622,0.33062 2.608666,0.72096 0.731946,0.47304 -3.236441,0.7135 -11.89781,0.72098 -7.147836,0.006 -12.996065,-0.1409 -12.996065,-0.32666 z m 60.038168,-0.39432 c 0.604043,-0.39034 1.777942,-0.71478 2.608666,-0.72096 0.830725,-0.006 2.478111,-1.02125 3.660869,-2.25577 l 2.150443,-2.24463 V 97.03988 61.960324 l -2.016147,-2.016157 c -1.108867,-1.108902 -3.250474,-2.412501 -4.759111,-2.896943 -2.257832,-0.725034 0.75348,-0.852996 17.025688,-0.723552 18.442601,0.146658 19.996051,0.262059 23.158241,1.718173 4.07333,1.87584 7.90544,5.556537 9.83586,9.447202 1.11972,2.256744 1.41637,4.398236 1.41014,10.179695 -0.008,6.505639 -0.22442,7.729792 -1.9502,10.982598 C 111.56244,95.16509 105.16406,100 100,100 c -1.959628,0 -1.904207,0.11379 2.05013,4.21002 2.23535,2.31548 6.50823,7.6641 9.49532,11.88582 9.61684,13.59161 17.31824,20.51281 22.82512,20.51281 1.05718,0 2.15576,0.37802 2.44128,0.84001 0.3824,0.61874 -1.25072,0.73908 -6.19998,0.45688 -5.594,-0.31896 -7.50762,-0.77127 -11.42781,-2.70118 -5.53767,-2.72618 -7.20608,-4.55894 -17.27218,-18.97352 C 93.153741,103.6893 90.169713,100.29143 86.391758,98.55832 l -2.762192,-1.26717 6.311767,-0.44541 c 7.30001,-0.51518 11.561437,-2.24541 14.902687,-6.050872 7.1407,-8.132835 4.74421,-24.597553 -4.27347,-29.360135 -2.852724,-1.506588 -4.232438,-1.704221 -11.897844,-1.704221 H 80.001817 V 95.87433 c 0,35.34973 0.03293,36.1858 1.503595,38.05534 0.826998,1.05135 2.803852,2.26162 4.393025,2.68956 1.589187,0.42792 2.889443,0.93007 2.889443,1.11591 0,0.18595 -5.848221,0.3328 -12.996073,0.32666 -8.661358,-0.008 -12.629744,-0.24794 -11.897796,-0.72098 z"
       id="path1" /></g></svg>
